<?xml version="1.0" encoding="UTF-8"?>
<svg id="Layer_2" data-name="Layer 2" xmlns="http://www.w3.org/2000/svg" viewBox="0 0 1723.69 488.35">
  <defs>
    <style>
      .cls-1 {
        fill: #d2d9d5;
      }
    </style>
  </defs>
  <g id="Layer_1-2" data-name="Layer 1">
    <g>
      <path class="cls-1" d="M1681.92,195.61c-6.32-.89-12.44-.55-18.17.8-5.67,1.34-11.61-.61-15.73-4.73l-18.52-18.52c-4.08-4.08-6.01-9.98-4.68-15.6,1.35-5.67,1.7-11.72.85-17.97-2.91-21.42-20.17-38.68-41.59-41.59-6.25-.85-12.3-.49-17.96.85-5.62,1.33-11.51-.59-15.6-4.68l-17.66-17.66c-4.17-4.17-6.1-10.22-4.66-15.93,1.22-4.83,1.72-9.95,1.35-15.25-1.73-24.61-22.3-44.48-46.95-45.33-27.72-.95-50.49,21.24-50.49,48.75,0,3.73.43,7.37,1.22,10.86,1.3,5.68-.24,11.63-4.36,15.75l-18.81,18.81c-4.08,4.08-9.98,6.01-15.6,4.68-5.67-1.35-11.71-1.7-17.96-.85-21.42,2.91-38.68,20.17-41.59,41.59-.85,6.25-.49,12.3.85,17.97,1.33,5.62-.59,11.52-4.68,15.6l-18.52,18.52c-4.12,4.12-10.06,6.07-15.73,4.73-5.73-1.35-11.85-1.69-18.17-.8-21.55,3.04-38.8,20.6-41.41,42.21-3.83,31.71,22.8,58.32,54.5,54.48,21.45-2.6,38.94-19.62,42.13-40.99.93-6.21.66-12.23-.58-17.89-1.24-5.63.73-11.49,4.8-15.56l19.4-19.4c4.06-4.06,9.91-5.62,15.53-4.42,4.45.95,9.13,1.3,13.95.93,23.69-1.8,43.07-21.17,44.87-44.86.37-4.82.02-9.5-.93-13.95-1.2-5.62.36-11.46,4.42-15.52l19.72-19.73c4.08-4.08,9.94-5.61,15.58-4.41,3.27.69,6.66,1.06,10.13,1.06,3.2,0,6.32-.32,9.34-.92,5.61-1.11,11.4.41,15.45,4.45l19.54,19.54c4.06,4.06,5.62,9.91,4.42,15.52-.95,4.45-1.3,9.13-.93,13.95,1.8,23.69,21.18,43.06,44.87,44.86,4.82.37,9.49.02,13.95-.93,5.62-1.2,11.46.36,15.53,4.42l19.4,19.4c4.08,4.07,6.04,9.94,4.8,15.56-1.24,5.65-1.51,11.67-.58,17.89,3.19,21.37,20.68,38.39,42.13,40.99,31.71,3.84,58.33-22.78,54.5-54.48-2.61-21.61-19.86-39.17-41.41-42.21Z"/>
      <path class="cls-1" d="M1429.91,439.57c0-26.94,21.84-48.78,48.78-48.78s48.78,21.84,48.78,48.78-21.84,48.78-48.78,48.78-48.78-21.84-48.78-48.78Z"/>
      <path class="cls-1" d="M1582.14,293.73c-6.32-.89-12.44-.55-18.17.8-5.67,1.34-11.61-.61-15.73-4.73l-17.59-17.59c-4.17-4.17-6.1-10.21-4.66-15.93,1.22-4.83,1.72-9.95,1.35-15.25-1.73-24.61-22.3-44.49-46.95-45.33-27.72-.95-50.49,21.24-50.49,48.75,0,3.73.42,7.37,1.22,10.86,1.3,5.68-.24,11.62-4.36,15.74l-18.74,18.74c-4.12,4.12-10.06,6.07-15.73,4.73-5.73-1.35-11.84-1.69-18.17-.8-21.55,3.04-38.8,20.6-41.41,42.21-3.83,31.71,22.79,58.33,54.51,54.49,21.45-2.6,38.94-19.62,42.13-40.99.93-6.21.66-12.23-.58-17.88-1.24-5.63.73-11.49,4.8-15.56l19.4-19.4c4.08-4.08,9.94-5.61,15.58-4.41,3.27.69,6.66,1.06,10.13,1.06,3.2,0,6.32-.32,9.34-.92,5.61-1.11,11.4.41,15.45,4.45l19.22,19.22c4.07,4.08,6.04,9.94,4.8,15.56-1.24,5.65-1.51,11.68-.58,17.89,3.19,21.37,20.68,38.39,42.13,40.99,31.71,3.84,58.33-22.78,54.5-54.48-2.61-21.61-19.86-39.17-41.41-42.21Z"/>
    </g>
    <g>
      <path class="cls-1" d="M275.37,305.1c0,2.42-.84,4.49-2.53,6.21-1.68,1.73-3.78,2.59-6.28,2.59h-6.73c-6.21,0-12.02-1.21-17.41-3.62-5.4-2.42-10.08-5.7-14.05-9.84-4.58,4.23-9.82,7.53-15.73,9.9-5.91,2.37-12.19,3.56-18.84,3.56h-28.61v-24.08c-6.91,3.54-14.41,5.31-22.53,5.31h-.13v18.77H44.41c-12.26,0-22.72-4.34-31.39-13.01-8.67-8.67-13.01-19.14-13.01-31.39v-109.92l28.48-5.7v115.61c0,4.4,1.55,8.16,4.66,11.26s6.86,4.66,11.26,4.66h69.65v-125.84l28.48-5.7v112.76h.13c6.21,0,11.5-2.2,15.86-6.6,4.36-4.4,6.54-9.67,6.54-15.79v-84.67l28.61-5.7v131.54h.13c6.21,0,11.5-2.2,15.86-6.6,4.36-4.4,6.54-9.67,6.54-15.8v-103.31l28.48-5.7v116.26c0,4.14,1.49,7.7,4.47,10.68,2.98,2.98,6.54,4.47,10.68,4.47h6.73c2.5,0,4.59.86,6.28,2.59,1.68,1.73,2.53,3.8,2.53,6.21v10.87Z"/>
      <path class="cls-1" d="M262.42,346.01h-19.29v-19.16h19.29v19.16ZM309.93,313.9h-50.36c-2.42,0-4.49-.86-6.21-2.59s-2.59-3.8-2.59-6.21v-10.87c0-2.42.86-4.49,2.59-6.21,1.73-1.73,3.8-2.59,6.21-2.59h21.88v-125.84l28.48-5.7v160.02ZM290.13,346.01h-19.42v-19.16h19.42v19.16Z"/>
      <path class="cls-1" d="M338.42,153.88h79.49v155.36c0,12-4.25,22.27-12.75,30.81s-18.79,12.82-30.88,12.82h-35.86v-28.48h35.86c4.23,0,7.81-1.47,10.75-4.4,2.93-2.94,4.4-6.51,4.4-10.74v-15.02c-2.5.6-5.09.91-7.77.91h-43.24v-141.24ZM389.43,258.88v-76.51h-22.53v84.28h14.76c2.16,0,3.99-.75,5.5-2.27s2.27-3.34,2.27-5.5Z"/>
      <path class="cls-1" d="M658.97,153.88v160.02h-43.24c-2.68,0-5.27-.3-7.77-.91v.91h-43.24c-9.93,0-18.45-3.54-25.57-10.62-7.12-7.08-10.68-15.62-10.68-25.63v-95.29h-20.46c-3.19,0-5.89,1.12-8.09,3.37-2.2,2.25-3.3,4.92-3.3,8.03v104.48c0,10.01-2.46,19.16-7.38,27.45-4.92,8.29-11.52,14.89-19.81,19.81s-17.43,7.38-27.45,7.38h-21.75v-28.48h21.75c7.16,0,13.31-2.55,18.45-7.64,5.13-5.09,7.7-11.26,7.7-18.51v-104.48c0-10.96,3.88-20.35,11.65-28.16s17.17-11.72,28.22-11.72h48.94v123.77c0,2.16.78,3.99,2.33,5.5s3.37,2.27,5.44,2.27h14.76v-125.84l28.48-5.7v123.77c0,2.16.78,3.99,2.33,5.5s3.37,2.27,5.44,2.27h14.76v-125.84l28.48-5.7Z"/>
      <path class="cls-1" d="M833.87,285.42h6.73c2.42,0,4.49.86,6.21,2.59,1.72,1.73,2.59,3.8,2.59,6.21v10.87c0,2.42-.87,4.49-2.59,6.21-1.73,1.73-3.8,2.59-6.21,2.59h-6.73c-5.35,0-10.4-.91-15.15-2.72-.78,11.82-5.31,21.73-13.59,29.71-8.29,7.98-18.3,11.98-30.04,11.98h-35.86v-28.48h35.86c4.23,0,7.81-1.47,10.75-4.4,2.93-2.94,4.4-6.51,4.4-10.74v-15.02c-2.5.6-5.09.91-7.77.91h-43.24v-141.24h79.49v116.39c0,4.14,1.47,7.7,4.4,10.68,2.93,2.98,6.51,4.47,10.74,4.47ZM767.72,266.65h14.76c2.16,0,3.99-.75,5.5-2.27,1.51-1.51,2.27-3.34,2.27-5.5v-76.51h-22.52v84.28Z"/>
      <path class="cls-1" d="M914.66,305.1c0,2.42-.86,4.49-2.59,6.21-1.73,1.73-3.8,2.59-6.21,2.59h-6.73c-5.35,0-10.4-.91-15.14-2.72v2.72h-50.36c-2.42,0-4.49-.86-6.21-2.59-1.72-1.73-2.59-3.8-2.59-6.21v-10.87c0-2.42.87-4.49,2.59-6.21,1.73-1.73,3.8-2.59,6.21-2.59h21.88v-125.71l28.48-5.7v116.26c0,4.23,1.47,7.81,4.4,10.75,2.93,2.94,6.51,4.4,10.74,4.4h6.73c2.42,0,4.49.86,6.21,2.59,1.73,1.73,2.59,3.8,2.59,6.21v10.87ZM879.45,141.71h-19.42v-19.16h19.42v19.16Z"/>
      <path class="cls-1" d="M1137.47,305.1c0,2.42-.86,4.49-2.59,6.21-1.73,1.73-3.8,2.59-6.21,2.59h-6.73c-5.35,0-10.4-.91-15.15-2.72v2.72h-207.92c-5.35-.52-8.29-3.45-8.8-8.8v-10.87c.52-5.35,3.45-8.29,8.8-8.8h179.43v-54.37c0-4.14-1.49-7.7-4.46-10.68-2.98-2.98-6.54-4.47-10.68-4.47h-128.3v-25.5l76.52-67.97v38.06l-30.3,26.93h82.08c11.99,0,22.27,4.27,30.81,12.82,8.55,8.54,12.82,18.82,12.82,30.81v39.23c0,4.23,1.47,7.81,4.4,10.75,2.93,2.94,6.51,4.4,10.74,4.4h6.73c2.42,0,4.49.86,6.21,2.59,1.73,1.73,2.59,3.8,2.59,6.21v10.87Z"/>
      <path class="cls-1" d="M1172.03,313.9h-50.36c-2.42,0-4.49-.86-6.21-2.59-1.73-1.73-2.59-3.8-2.59-6.21v-10.87c0-2.42.86-4.49,2.59-6.21,1.73-1.73,3.8-2.59,6.21-2.59h21.88v-125.84l28.48-5.7v160.02ZM1153.65,140.16h-19.29v-19.16h19.29v19.16ZM1181.23,140.16h-19.29v-19.16h19.29v19.16Z"/>
    </g>
  </g>
</svg>