<?xml version="1.0" encoding="UTF-8"?>
<svg id="Layer_2" data-name="Layer 2" xmlns="http://www.w3.org/2000/svg" viewBox="0 0 690.54 810.87">
  <defs>
    <style>
      .cls-1 {
        fill: #202a30;
      }
    </style>
  </defs>
  <g id="Layer_1-2" data-name="Layer 1">
    <g>
      <g>
        <path class="cls-1" d="M595.6,250.09c-8.08-1.14-15.91-.7-23.23,1.02-7.24,1.71-14.85-.78-20.11-6.05l-23.67-23.67c-5.22-5.22-7.68-12.76-5.98-19.95,1.72-7.24,2.18-14.98,1.09-22.97-3.72-27.38-25.79-49.45-53.17-53.17-7.99-1.08-15.72-.63-22.96,1.09-7.18,1.7-14.72-.76-19.94-5.98l-22.58-22.58c-5.33-5.33-7.8-13.06-5.95-20.37,1.56-6.18,2.2-12.72,1.73-19.5C398.61,26.53,372.31,1.12,340.79.04c-35.44-1.21-64.55,27.16-64.55,62.33,0,4.77.54,9.42,1.57,13.88,1.66,7.26-.31,14.86-5.58,20.13l-24.05,24.05c-5.22,5.22-12.76,7.68-19.94,5.98-7.24-1.72-14.97-2.18-22.96-1.09-27.38,3.72-49.46,25.79-53.17,53.17-1.09,7.99-.63,15.72,1.09,22.97,1.71,7.18-.76,14.73-5.98,19.95l-23.67,23.67c-5.26,5.26-12.87,7.76-20.11,6.05-7.33-1.73-15.15-2.17-23.23-1.02-27.55,3.89-49.61,26.34-52.94,53.97-4.89,40.54,29.15,74.56,69.68,69.65,27.42-3.32,49.79-25.08,53.87-52.4,1.19-7.94.85-15.64-.74-22.87-1.58-7.2.93-14.69,6.14-19.9l24.81-24.81c5.2-5.2,12.67-7.19,19.85-5.65,5.69,1.22,11.67,1.66,17.83,1.19,30.29-2.3,55.06-27.07,57.36-57.36.47-6.16.03-12.14-1.19-17.84-1.53-7.18.46-14.65,5.65-19.85l25.22-25.22c5.21-5.21,12.71-7.17,19.91-5.64,4.18.89,8.51,1.36,12.95,1.36,4.09,0,8.08-.41,11.94-1.17,7.17-1.42,14.58.53,19.75,5.69l24.98,24.98c5.19,5.19,7.19,12.66,5.65,19.85-1.22,5.7-1.66,11.68-1.19,17.84,2.31,30.28,27.08,55.05,57.36,57.36,6.16.47,12.14.03,17.83-1.19,7.18-1.54,14.65.45,19.85,5.65l24.81,24.81c5.21,5.21,7.72,12.7,6.14,19.9-1.59,7.23-1.93,14.93-.74,22.87,4.08,27.32,26.44,49.08,53.87,52.4,40.54,4.91,74.57-29.12,69.68-69.65-3.33-27.63-25.39-50.08-52.94-53.97Z"/>
        <path class="cls-1" d="M273.4,561.99c0-34.44,27.92-62.36,62.36-62.36s62.36,27.92,62.36,62.36-27.92,62.36-62.36,62.36-62.36-27.92-62.36-62.36Z"/>
        <path class="cls-1" d="M468.03,375.53c-8.08-1.14-15.9-.7-23.23,1.02-7.24,1.71-14.85-.78-20.11-6.05l-22.49-22.49c-5.33-5.33-7.8-13.06-5.95-20.37,1.56-6.18,2.2-12.72,1.73-19.5-2.21-31.46-28.51-56.87-60.02-57.95-35.44-1.21-64.55,27.16-64.55,62.33,0,4.77.54,9.42,1.57,13.88,1.66,7.26-.31,14.86-5.58,20.13l-23.96,23.96c-5.26,5.26-12.87,7.75-20.11,6.05-7.32-1.73-15.14-2.17-23.22-1.03-27.55,3.89-49.61,26.34-52.95,53.96-4.9,40.54,29.14,74.57,69.68,69.66,27.42-3.32,49.79-25.09,53.86-52.41,1.19-7.94.85-15.64-.74-22.86-1.58-7.19.93-14.69,6.14-19.89l24.81-24.81c5.21-5.21,12.71-7.17,19.91-5.64,4.18.89,8.51,1.36,12.95,1.36,4.09,0,8.08-.41,11.94-1.17,7.17-1.42,14.58.53,19.75,5.69l24.57,24.57c5.21,5.21,7.73,12.7,6.14,19.9-1.59,7.23-1.93,14.93-.74,22.87,4.08,27.32,26.44,49.08,53.87,52.4,40.54,4.91,74.57-29.12,69.68-69.65-3.33-27.63-25.39-50.08-52.94-53.97Z"/>
      </g>
      <g>
        <path class="cls-1" d="M160.98,782.94c0,1.41-.49,2.62-1.48,3.63-.98,1.01-2.21,1.51-3.67,1.51h-3.94c-3.63,0-7.03-.71-10.18-2.12-3.15-1.41-5.89-3.33-8.21-5.75-2.67,2.47-5.74,4.4-9.2,5.79-3.46,1.39-7.13,2.08-11.01,2.08h-16.73v-14.08c-4.04,2.07-8.43,3.1-13.17,3.1h-.08v10.97H25.96c-7.17,0-13.28-2.54-18.35-7.61-5.07-5.07-7.61-11.19-7.61-18.35v-64.26l16.65-3.33v67.59c0,2.57.91,4.77,2.72,6.58s4.01,2.72,6.58,2.72h40.72v-73.56l16.65-3.33v65.92h.08c3.63,0,6.72-1.29,9.27-3.86,2.55-2.57,3.82-5.65,3.82-9.23v-49.5l16.73-3.33v76.89h.08c3.63,0,6.72-1.29,9.27-3.86,2.55-2.57,3.82-5.65,3.82-9.23v-60.39l16.65-3.33v67.96c0,2.42.87,4.5,2.61,6.24,1.74,1.74,3.82,2.61,6.24,2.61h3.94c1.46,0,2.69.5,3.67,1.51.98,1.01,1.48,2.22,1.48,3.63v6.36Z"/>
        <path class="cls-1" d="M153.41,806.86h-11.28v-11.2h11.28v11.2ZM181.19,788.09h-29.44c-1.41,0-2.62-.5-3.63-1.51s-1.51-2.22-1.51-3.63v-6.36c0-1.41.5-2.62,1.51-3.63,1.01-1.01,2.22-1.51,3.63-1.51h12.79v-73.56l16.65-3.33v93.54ZM169.61,806.86h-11.35v-11.2h11.35v11.2Z"/>
        <path class="cls-1" d="M197.84,694.54h46.47v90.82c0,7.01-2.49,13.02-7.46,18.01s-10.99,7.49-18.05,7.49h-20.96v-16.65h20.96c2.47,0,4.57-.86,6.28-2.57,1.71-1.72,2.57-3.81,2.57-6.28v-8.78c-1.46.35-2.98.53-4.54.53h-25.28v-82.57ZM227.66,755.92v-44.73h-13.17v49.27h8.63c1.26,0,2.33-.44,3.22-1.32s1.32-1.95,1.32-3.22Z"/>
        <path class="cls-1" d="M385.23,694.54v93.54h-25.28c-1.56,0-3.08-.18-4.54-.53v.53h-25.28c-5.8,0-10.79-2.07-14.95-6.21-4.16-4.14-6.24-9.13-6.24-14.99v-55.7h-11.96c-1.87,0-3.44.66-4.73,1.97-1.29,1.31-1.93,2.88-1.93,4.69v61.08c0,5.85-1.44,11.2-4.31,16.04-2.88,4.84-6.74,8.7-11.58,11.58s-10.19,4.31-16.04,4.31h-12.71v-16.65h12.71c4.19,0,7.78-1.49,10.79-4.47,3-2.98,4.5-6.58,4.5-10.82v-61.08c0-6.41,2.27-11.89,6.81-16.46s10.04-6.85,16.5-6.85h28.61v72.35c0,1.26.45,2.33,1.36,3.22s1.97,1.32,3.18,1.32h8.63v-73.56l16.65-3.33v72.35c0,1.26.45,2.33,1.36,3.22s1.97,1.32,3.18,1.32h8.63v-73.56l16.65-3.33Z"/>
        <path class="cls-1" d="M487.48,771.44h3.94c1.41,0,2.62.5,3.63,1.51,1.01,1.01,1.51,2.22,1.51,3.63v6.36c0,1.41-.51,2.62-1.51,3.63-1.01,1.01-2.22,1.51-3.63,1.51h-3.94c-3.13,0-6.08-.53-8.86-1.59-.45,6.91-3.1,12.7-7.95,17.37-4.84,4.67-10.7,7-17.56,7h-20.96v-16.65h20.96c2.47,0,4.57-.86,6.28-2.57,1.71-1.72,2.57-3.81,2.57-6.28v-8.78c-1.46.35-2.98.53-4.54.53h-25.28v-82.57h46.47v68.04c0,2.42.86,4.5,2.57,6.24,1.71,1.74,3.81,2.61,6.28,2.61ZM448.8,760.46h8.63c1.26,0,2.33-.44,3.22-1.32.88-.88,1.32-1.95,1.32-3.22v-44.73h-13.17v49.27Z"/>
        <path class="cls-1" d="M534.7,782.94c0,1.41-.5,2.62-1.51,3.63-1.01,1.01-2.22,1.51-3.63,1.51h-3.94c-3.13,0-6.08-.53-8.85-1.59v1.59h-29.44c-1.41,0-2.62-.5-3.63-1.51-1.01-1.01-1.51-2.22-1.51-3.63v-6.36c0-1.41.51-2.62,1.51-3.63,1.01-1.01,2.22-1.51,3.63-1.51h12.79v-73.49l16.65-3.33v67.96c0,2.47.86,4.57,2.57,6.28,1.71,1.72,3.81,2.57,6.28,2.57h3.94c1.41,0,2.62.5,3.63,1.51,1.01,1.01,1.51,2.22,1.51,3.63v6.36ZM514.12,687.43h-11.35v-11.2h11.35v11.2Z"/>
        <path class="cls-1" d="M664.96,782.94c0,1.41-.5,2.62-1.51,3.63-1.01,1.01-2.22,1.51-3.63,1.51h-3.94c-3.13,0-6.08-.53-8.86-1.59v1.59h-121.55c-3.13-.3-4.84-2.02-5.15-5.15v-6.36c.3-3.13,2.02-4.84,5.15-5.15h104.9v-31.79c0-2.42-.87-4.5-2.61-6.24-1.74-1.74-3.82-2.61-6.24-2.61h-75v-14.91l44.73-39.73v22.25l-17.71,15.74h47.98c7.01,0,13.02,2.5,18.01,7.49,5,5,7.49,11,7.49,18.01v22.93c0,2.47.86,4.57,2.57,6.28,1.71,1.72,3.81,2.57,6.28,2.57h3.94c1.41,0,2.62.5,3.63,1.51,1.01,1.01,1.51,2.22,1.51,3.63v6.36Z"/>
        <path class="cls-1" d="M685.16,788.09h-29.44c-1.41,0-2.62-.5-3.63-1.51-1.01-1.01-1.51-2.22-1.51-3.63v-6.36c0-1.41.5-2.62,1.51-3.63,1.01-1.01,2.22-1.51,3.63-1.51h12.79v-73.56l16.65-3.33v93.54ZM674.42,686.52h-11.28v-11.2h11.28v11.2ZM690.54,686.52h-11.28v-11.2h11.28v11.2Z"/>
      </g>
    </g>
  </g>
</svg>