<?xml version="1.0" encoding="UTF-8"?>
<svg id="Layer_2" data-name="Layer 2" xmlns="http://www.w3.org/2000/svg" viewBox="0 0 1684 383.11">
  <defs>
    <style>
      .cls-1 {
        fill: #14262c;
      }

      .cls-2 {
        fill: #202a30;
      }
    </style>
  </defs>
  <g id="Layer_1-2" data-name="Layer 1">
    <g>
      <path class="cls-2" d="M291.37,283.22c0,2.56-.89,4.75-2.67,6.58-1.78,1.83-4,2.74-6.64,2.74h-7.12c-6.58,0-12.72-1.28-18.43-3.84-5.71-2.56-10.66-6.03-14.86-10.41-4.84,4.48-10.39,7.97-16.64,10.48-6.26,2.51-12.9,3.77-19.93,3.77h-30.27v-25.48c-7.31,3.75-15.25,5.62-23.84,5.62h-.14v19.86H46.99c-12.97,0-24.04-4.59-33.22-13.77-9.18-9.18-13.77-20.25-13.77-33.22v-116.3l30.14-6.03v122.33c0,4.66,1.64,8.63,4.93,11.92s7.26,4.93,11.92,4.93h73.7v-133.15l30.14-6.03v119.31h.14c6.58,0,12.17-2.33,16.78-6.99,4.61-4.66,6.92-10.23,6.92-16.71v-89.59l30.27-6.03v139.18h.14c6.58,0,12.17-2.33,16.78-6.99,4.61-4.66,6.92-10.23,6.92-16.71v-109.31l30.14-6.03v123.01c0,4.38,1.57,8.15,4.73,11.3,3.15,3.15,6.92,4.73,11.3,4.73h7.12c2.64,0,4.86.91,6.64,2.74,1.78,1.83,2.67,4.02,2.67,6.58v11.51Z"/>
      <path class="cls-2" d="M277.67,326.51h-20.41v-20.27h20.41v20.27ZM327.95,292.54h-53.29c-2.56,0-4.75-.91-6.58-2.74s-2.74-4.02-2.74-6.58v-11.51c0-2.56.91-4.75,2.74-6.58,1.83-1.83,4.02-2.74,6.58-2.74h23.15v-133.15l30.14-6.03v169.32ZM306.99,326.51h-20.55v-20.27h20.55v20.27Z"/>
      <path class="cls-2" d="M358.08,123.22h84.11v164.38c0,12.69-4.5,23.56-13.49,32.6-9,9.04-19.89,13.56-32.67,13.56h-37.94v-30.14h37.94c4.47,0,8.27-1.56,11.37-4.66,3.1-3.11,4.66-6.89,4.66-11.37v-15.89c-2.65.64-5.39.96-8.22.96h-45.75V123.22ZM412.06,234.32v-80.96h-23.84v89.18h15.62c2.28,0,4.22-.8,5.82-2.4,1.6-1.6,2.4-3.54,2.4-5.82Z"/>
      <path class="cls-2" d="M697.26,123.22v169.32h-45.75c-2.83,0-5.57-.32-8.22-.96v.96h-45.75c-10.5,0-19.52-3.74-27.05-11.23-7.54-7.49-11.3-16.53-11.3-27.12v-100.82h-21.64c-3.38,0-6.23,1.19-8.56,3.56-2.33,2.38-3.49,5.21-3.49,8.49v110.55c0,10.6-2.6,20.27-7.81,29.04-5.21,8.77-12.19,15.75-20.96,20.96-8.77,5.21-18.45,7.81-29.04,7.81h-23.01v-30.14h23.01c7.58,0,14.09-2.7,19.52-8.08,5.43-5.39,8.15-11.92,8.15-19.59v-110.55c0-11.6,4.11-21.53,12.33-29.79s18.17-12.4,29.86-12.4h51.78v130.96c0,2.28.82,4.22,2.47,5.82s3.56,2.4,5.75,2.4h15.62v-133.15l30.14-6.03v130.96c0,2.28.82,4.22,2.46,5.82,1.64,1.6,3.56,2.4,5.76,2.4h15.61v-133.15l30.14-6.03Z"/>
      <path class="cls-2" d="M882.33,262.4h7.12c2.56,0,4.75.91,6.58,2.74,1.82,1.83,2.74,4.02,2.74,6.58v11.51c0,2.56-.92,4.75-2.74,6.58-1.83,1.83-4.02,2.74-6.58,2.74h-7.12c-5.66,0-11-.96-16.03-2.88-.82,12.51-5.62,22.99-14.38,31.44-8.77,8.45-19.36,12.67-31.78,12.67h-37.94v-30.14h37.94c4.48,0,8.27-1.56,11.37-4.66,3.1-3.11,4.66-6.89,4.66-11.37v-15.89c-2.65.64-5.39.96-8.22.96h-45.75V123.22h84.11v123.15c0,4.38,1.55,8.15,4.66,11.3,3.1,3.15,6.89,4.73,11.37,4.73ZM812.33,242.54h15.61c2.28,0,4.22-.8,5.82-2.4,1.6-1.6,2.4-3.54,2.4-5.82v-80.96h-23.83v89.18Z"/>
      <path class="cls-2" d="M967.81,283.22c0,2.56-.91,4.75-2.74,6.58-1.83,1.83-4.02,2.74-6.58,2.74h-7.12c-5.66,0-11-.96-16.02-2.88v2.88h-53.29c-2.56,0-4.75-.91-6.58-2.74-1.82-1.83-2.74-4.02-2.74-6.58v-11.51c0-2.56.92-4.75,2.74-6.58,1.83-1.83,4.02-2.74,6.58-2.74h23.15v-133.01l30.14-6.03v123.01c0,4.48,1.55,8.27,4.66,11.37,3.1,3.11,6.89,4.66,11.37,4.66h7.12c2.56,0,4.75.91,6.58,2.74,1.83,1.83,2.74,4.02,2.74,6.58v11.51ZM930.55,110.34h-20.55v-20.27h20.55v20.27Z"/>
      <path class="cls-2" d="M1203.57,283.22c0,2.56-.91,4.75-2.74,6.58-1.83,1.83-4.02,2.74-6.58,2.74h-7.12c-5.66,0-11-.96-16.03-2.88v2.88h-220c-5.66-.55-8.77-3.65-9.32-9.32v-11.51c.55-5.66,3.66-8.77,9.32-9.32h189.86v-57.53c0-4.38-1.57-8.15-4.72-11.3-3.15-3.15-6.92-4.73-11.3-4.73h-135.76v-26.99l80.96-71.92v40.27l-32.06,28.49h86.85c12.69,0,23.56,4.52,32.6,13.56,9.04,9.04,13.56,19.91,13.56,32.6v41.51c0,4.48,1.55,8.27,4.66,11.37,3.1,3.11,6.89,4.66,11.37,4.66h7.12c2.56,0,4.75.91,6.58,2.74,1.83,1.83,2.74,4.02,2.74,6.58v11.51Z"/>
      <path class="cls-2" d="M1240.14,292.54h-53.29c-2.56,0-4.75-.91-6.58-2.74-1.83-1.83-2.74-4.02-2.74-6.58v-11.51c0-2.56.91-4.75,2.74-6.58,1.83-1.83,4.02-2.74,6.58-2.74h23.15v-133.15l30.14-6.03v169.32ZM1220.69,108.7h-20.41v-20.27h20.41v20.27ZM1249.87,108.7h-20.41v-20.27h20.41v20.27Z"/>
    </g>
    <g>
      <path class="cls-1" d="M1646.45,218.9c-1.98,1.92-2.67,4.73-2.01,7.4.38,1.54.58,3.15.58,4.82s-.21,3.29-.59,4.85c-.66,2.67.03,5.49,2,7.4,10.23,9.94,23.92,23.18,37.57,36.35v-97.05c-13.65,13.13-27.33,26.32-37.55,36.24Z"/>
      <path class="cls-1" d="M1660.82,275.68c-8.39-8.11-16.76-16.21-23.72-22.98-1.93-1.88-4.69-2.52-7.3-1.83-1.66.44-3.4.68-5.2.68-11.99,0-21.57-10.34-20.31-22.59.92-8.91,7.79-16.33,16.6-17.92,3.1-.56,6.08-.4,8.84.33,2.64.69,5.44.1,7.41-1.8,6.95-6.74,15.3-14.81,23.67-22.87,8.17-7.88,16.34-15.73,23.19-22.32v-24.41l-46.71-45.56c-1.97-1.92-4.81-2.52-7.47-1.81-2.76.74-5.76.91-8.86.37-8.43-1.49-15.19-8.32-16.53-16.77-2.19-13.84,9.54-25.61,23.36-23.51,8.4,1.28,15.23,7.9,16.84,16.24.59,3.04.47,5.97-.19,8.69-.64,2.62.02,5.38,1.95,7.26l37.6,36.68v-20.88c0-55.59-45.07-100.66-100.66-100.66h-181.78c-55.59,0-100.66,45.07-100.66,100.66v181.78c0,55.6,45.07,100.66,100.66,100.66h181.78c50.65,0,92.54-37.41,99.6-86.1-6.63-6.39-14.36-13.85-22.12-21.34ZM1542.91,330.68c-11.28,0-20.42-9.14-20.42-20.42s9.14-20.42,20.42-20.42,20.42,9.14,20.42,20.42-9.14,20.42-20.42,20.42ZM1621.38,330.44c-8.36-1.28-15.17-7.85-16.81-16.14-.6-3.02-.5-5.93.13-8.63.61-2.6-.05-5.33-1.98-7.19-6.94-6.69-15.29-14.74-23.64-22.8-8.39-8.1-16.76-16.21-23.72-22.98-1.92-1.87-4.68-2.52-7.27-1.83-1.66.44-3.39.68-5.19.68-11.99,0-21.57-10.33-20.31-22.58.91-8.9,7.78-16.33,16.58-17.93,3.1-.56,6.09-.4,8.85.32,2.63.69,5.42.09,7.38-1.8,6.95-6.74,15.3-14.81,23.67-22.87,8.33-8.03,16.67-16.05,23.61-22.72,1.97-1.9,2.67-4.69,2.04-7.35-.35-1.49-.54-3.04-.54-4.64,0-1.51.17-2.98.48-4.4.59-2.64-.1-5.39-2.03-7.28l-47.06-45.9c-1.97-1.92-4.8-2.52-7.46-1.82-2.76.74-5.75.9-8.85.36-8.43-1.49-15.18-8.33-16.51-16.78-2.18-13.83,9.54-25.6,23.36-23.5,8.4,1.27,15.24,7.91,16.84,16.25.59,3.05.47,5.98-.2,8.71-.64,2.62.02,5.38,1.95,7.27l46.97,45.81c1.91,1.86,4.66,2.41,7.22,1.67,1.81-.53,3.73-.81,5.71-.81,12.01,0,21.61,10.38,20.3,22.66-.95,8.92-7.86,16.34-16.71,17.88-3.13.54-6.14.36-8.93-.4-2.64-.72-5.45-.14-7.42,1.76-16.58,15.93-34.47,33.17-47.1,45.42-1.98,1.92-2.67,4.74-2.01,7.41.38,1.55.59,3.17.59,4.85s-.21,3.31-.6,4.88c-.67,2.67.03,5.49,2,7.41,12.59,12.24,30.42,29.46,46.97,45.41,1.99,1.91,4.83,2.49,7.48,1.76,2.78-.77,5.81-.97,8.94-.43,8.45,1.44,15.25,8.25,16.62,16.72,2.24,13.87-9.51,25.7-23.36,23.58ZM1522.48,151.99c0-11.28,9.14-20.42,20.42-20.42s20.42,9.14,20.42,20.42-9.14,20.42-20.42,20.42-20.42-9.14-20.42-20.42Z"/>
    </g>
  </g>
</svg>