<?xml version="1.0" encoding="UTF-8"?>
<svg id="Layer_2" data-name="Layer 2" xmlns="http://www.w3.org/2000/svg" viewBox="0 0 1636.72 329.08">
  <defs>
    <style>
      .cls-1 {
        fill: #202a30;
      }
    </style>
  </defs>
  <g id="Layer_1-2" data-name="Layer 1">
    <path class="cls-1" d="M291.37,249.67c0,2.56-.89,4.75-2.67,6.58-1.78,1.83-4,2.74-6.64,2.74h-7.12c-6.58,0-12.72-1.28-18.43-3.84-5.71-2.56-10.66-6.03-14.86-10.41-4.84,4.48-10.39,7.97-16.64,10.48-6.26,2.51-12.9,3.77-19.93,3.77h-30.27v-25.48c-7.31,3.75-15.25,5.62-23.84,5.62h-.14v19.86H46.99c-12.97,0-24.04-4.59-33.22-13.77-9.18-9.18-13.77-20.25-13.77-33.22v-116.3l30.14-6.03v122.33c0,4.66,1.64,8.63,4.93,11.92s7.26,4.93,11.92,4.93h73.7V95.69l30.14-6.03v119.31h.14c6.58,0,12.17-2.33,16.78-6.99,4.61-4.66,6.92-10.23,6.92-16.71v-89.59l30.27-6.03v139.18h.14c6.58,0,12.17-2.33,16.78-6.99,4.61-4.66,6.92-10.23,6.92-16.71v-109.31l30.14-6.03v123.01c0,4.38,1.57,8.15,4.73,11.3,3.15,3.15,6.92,4.73,11.3,4.73h7.12c2.64,0,4.86.91,6.64,2.74,1.78,1.83,2.67,4.02,2.67,6.58v11.51Z"/>
    <path class="cls-1" d="M277.67,292.96h-20.41v-20.27h20.41v20.27ZM327.95,258.98h-53.29c-2.56,0-4.75-.91-6.58-2.74s-2.74-4.02-2.74-6.58v-11.51c0-2.56.91-4.75,2.74-6.58,1.83-1.83,4.02-2.74,6.58-2.74h23.15V95.69l30.14-6.03v169.32ZM306.99,292.96h-20.55v-20.27h20.55v20.27Z"/>
    <path class="cls-1" d="M358.08,89.67h84.11v164.38c0,12.69-4.5,23.56-13.49,32.6-9,9.04-19.89,13.56-32.67,13.56h-37.94v-30.14h37.94c4.47,0,8.27-1.56,11.37-4.66,3.1-3.11,4.66-6.89,4.66-11.37v-15.89c-2.65.64-5.39.96-8.22.96h-45.75V89.67ZM412.06,200.76v-80.96h-23.84v89.18h15.62c2.28,0,4.22-.8,5.82-2.4,1.6-1.6,2.4-3.54,2.4-5.82Z"/>
    <path class="cls-1" d="M697.26,89.67v169.32h-45.75c-2.83,0-5.57-.32-8.22-.96v.96h-45.75c-10.5,0-19.52-3.74-27.05-11.23-7.54-7.49-11.3-16.53-11.3-27.12v-100.82h-21.64c-3.38,0-6.23,1.19-8.56,3.56-2.33,2.38-3.49,5.21-3.49,8.49v110.55c0,10.6-2.6,20.27-7.81,29.04-5.21,8.77-12.19,15.75-20.96,20.96-8.77,5.21-18.45,7.81-29.04,7.81h-23.01v-30.14h23.01c7.58,0,14.09-2.7,19.52-8.08,5.43-5.39,8.15-11.92,8.15-19.59v-110.55c0-11.6,4.11-21.53,12.33-29.79,8.22-8.27,18.17-12.4,29.86-12.4h51.78v130.96c0,2.28.82,4.22,2.47,5.82s3.56,2.4,5.75,2.4h15.62V95.69l30.14-6.03v130.96c0,2.28.82,4.22,2.46,5.82,1.64,1.6,3.56,2.4,5.76,2.4h15.61V95.69l30.14-6.03Z"/>
    <path class="cls-1" d="M882.33,228.85h7.12c2.56,0,4.75.91,6.58,2.74,1.82,1.83,2.74,4.02,2.74,6.58v11.51c0,2.56-.92,4.75-2.74,6.58-1.83,1.83-4.02,2.74-6.58,2.74h-7.12c-5.66,0-11-.96-16.03-2.88-.82,12.51-5.62,22.99-14.38,31.44-8.77,8.45-19.36,12.67-31.78,12.67h-37.94v-30.14h37.94c4.48,0,8.27-1.56,11.37-4.66,3.1-3.11,4.66-6.89,4.66-11.37v-15.89c-2.65.64-5.39.96-8.22.96h-45.75V89.67h84.11v123.15c0,4.38,1.55,8.15,4.66,11.3,3.1,3.15,6.89,4.73,11.37,4.73ZM812.33,208.98h15.61c2.28,0,4.22-.8,5.82-2.4,1.6-1.6,2.4-3.54,2.4-5.82v-80.96h-23.83v89.18Z"/>
    <path class="cls-1" d="M967.81,249.67c0,2.56-.91,4.75-2.74,6.58-1.83,1.83-4.02,2.74-6.58,2.74h-7.12c-5.66,0-11-.96-16.02-2.88v2.88h-53.29c-2.56,0-4.75-.91-6.58-2.74-1.82-1.83-2.74-4.02-2.74-6.58v-11.51c0-2.56.92-4.75,2.74-6.58,1.83-1.83,4.02-2.74,6.58-2.74h23.15V95.83l30.14-6.03v123.01c0,4.48,1.55,8.27,4.66,11.37,3.1,3.11,6.89,4.66,11.37,4.66h7.12c2.56,0,4.75.91,6.58,2.74,1.83,1.83,2.74,4.02,2.74,6.58v11.51ZM930.55,76.79h-20.55v-20.27h20.55v20.27Z"/>
    <path class="cls-1" d="M1203.57,249.67c0,2.56-.91,4.75-2.74,6.58-1.83,1.83-4.02,2.74-6.58,2.74h-7.12c-5.66,0-11-.96-16.03-2.88v2.88h-220c-5.66-.55-8.77-3.65-9.32-9.32v-11.51c.55-5.66,3.66-8.77,9.32-9.32h189.86v-57.53c0-4.38-1.57-8.15-4.72-11.3-3.15-3.15-6.92-4.73-11.3-4.73h-135.76v-26.99l80.96-71.92v40.27l-32.06,28.49h86.85c12.69,0,23.56,4.52,32.6,13.56,9.04,9.04,13.56,19.91,13.56,32.6v41.51c0,4.48,1.55,8.27,4.66,11.37,3.1,3.11,6.89,4.66,11.37,4.66h7.12c2.56,0,4.75.91,6.58,2.74,1.83,1.83,2.74,4.02,2.74,6.58v11.51Z"/>
    <path class="cls-1" d="M1240.14,258.98h-53.29c-2.56,0-4.75-.91-6.58-2.74-1.83-1.83-2.74-4.02-2.74-6.58v-11.51c0-2.56.91-4.75,2.74-6.58,1.83-1.83,4.02-2.74,6.58-2.74h23.15V95.69l30.14-6.03v169.32ZM1220.69,75.15h-20.41v-20.27h20.41v20.27ZM1249.87,75.15h-20.41v-20.27h20.41v20.27Z"/>
    <path class="cls-1" d="M1307.59,177.43c37.38,64.08,87.69,114.99,151.39,151.65h-131.96c-10.73,0-19.42-8.7-19.42-19.42v-132.22ZM1307.59,19.37C1307.59,8.67,1316.26,0,1326.95,0h65.94l243.83,243.51v65.46c0,5.34-2.12,10.45-5.89,14.23-3.77,3.77-8.89,5.89-14.22,5.89h-65.47l-243.55-243.51M1485.37,0h131.9c10.74,0,19.45,8.71,19.45,19.46v132c-37.51-62.43-87.55-113.43-151.35-151.46Z"/>
  </g>
</svg>